# AST/ASF file generated using VICON BodyLanguage
# -----------------------------------------------
:version 1.10
:name VICON
:units
  mass 1.0
  length 0.45
  angle deg
:documentation
   .ast/.asf automatically generated from VICON data using
   VICON BodyBuilder and BodyLanguage model FoxedUp or BRILLIANT.MOD
:root
   order TX TY TZ RX RY RZ
   axis XYZ
   position 0 0 0  
   orientation 0 0 0 
:bonedata
  begin
     id 1 
     name lhipjoint
     direction 0.682418 -0.694059 0.22932 
     length 2.25561 
     axis 0 0 0  XYZ
  end
  begin
     id 2 
     name lfemur
     direction 0.34202 -0.939693 0  
     length 6.96448  
     axis 0 0 20  XYZ
    dof rx ry rz
    limits (-160.0 20.0)
           (-70.0 70.0)
           (-60.0 70.0)
  end
  begin
     id 3 
     name ltibia
     direction 0.34202 -0.939693 0   
     length 6.88553   
     axis 0 0 20   XYZ
    dof rx
    limits (-10.0 170.0)
  end
  begin
     id 4 
     name lfoot
     direction 0.0723587 -0.198804 0.977364   
     length 1.88518   
     axis -90 7.62852e-016 20   XYZ
    dof rx rz
    limits (-45.0 90.0)
           (-70.0 20.0)
  end
  begin
     id 5 
     name ltoes
     direction 1.53558e-011 -4.21962e-011 1   
     length 0.952124   
     axis -90 7.62852e-016 20   XYZ
    dof rx
    limits (-90.0 20.0)
  end
  begin
     id 6 
     name rhipjoint
     direction -0.657603 -0.71533 0.236348   
     length 2.18854  
     axis 0 0 0  XYZ 
  end
  begin
     id 7 
     name rfemur
     direction -0.34202 -0.939693 0   
     length 6.86686   
     axis 0 0 -20   XYZ
    dof rx ry rz
    limits (-160.0 20.0)
           (-70.0 70.0)
           (-70.0 60.0)
  end
  begin
     id 8 
     name rtibia
     direction -0.34202 -0.939693 0   
     length 6.59503   
     axis 0 0 -20   XYZ
    dof rx
    limits (-10.0 170.0)
 end
 begin
     id 9 
     name rfoot
     direction -0.101977 -0.280179 0.954516   
     length 1.93723  
     axis -90 -7.62852e-016 -20   XYZ
    dof rx rz
    limits (-45.0 90.0)
           (-20.0 70.0)
  end
  begin
     id 10 
     name rtoes
     direction -1.53564e-011 -4.21897e-011 1   
     length 0.970315   
     axis -90 -7.62852e-016 -20   XYZ
    dof rx
    limits (-90.0 20.0)
  end
  begin
     id 11 
     name lowerback
     direction -0.0339559 0.999421 -0.00235966   
     length 1.88543   
     axis 0 0 0   XYZ
    dof rx ry rz
    limits (-20.0 45.0)
           (-30.0 30.0)
           (-30.0 30.0)
  end
  begin
     id 12 
     name upperback
     direction 0.00401003 0.999739 0.0224689   
     length 1.8856   
     axis 0 0 0   XYZ
    dof rx ry rz
    limits (-20.0 45.0)
           (-30.0 30.0)
           (-30.0 30.0)
  end
  begin
     id 13 
     name thorax
     direction 0.0198619 0.999546 0.0226536   
     length 1.88352   
     axis 0 0 0   XYZ
    dof rx ry rz
    limits (-20.0 45.0)
           (-30.0 30.0)
           (-30.0 30.0)
  end
  begin
     id 14 
     name lowerneck
     direction -0.0461848 0.998632 0.0245198   
     length 1.34895   
     axis 0 0 0   XYZ
    dof rx ry rz
    limits (-20.0 45.0)
           (-30.0 30.0)
           (-30.0 30.0)
  end
  begin
     id 15 
     name upperneck
     direction -0.0180627 0.994724 -0.100984   
     length 1.35214   
     axis 0 0 0   XYZ
    dof rx ry rz
    limits (-20.0 45.0)
           (-30.0 30.0)
           (-30.0 30.0)
  end
  begin
     id 16
     name head
     direction -0.00374772 0.999293 -0.037403  
     length 1.3568  
     axis 0 0 0   XYZ
    dof rx ry rz
    limits (-20.0 45.0)
           (-30.0 30.0)
           (-30.0 30.0)
  end
  begin
     id 17 
     name lclavicle
     direction 0.971773 0.191119 0.138311  
     length 2.84954  
     axis 0 0 0   XYZ
    dof ry rz
    limits (-20.0 10.0)
           (0.0 20.0)
  end
  begin
     id 18 
     name lhumerus
     direction 1 -4.4897e-011 -2.43761e-027   
     length 4.40919   
     axis 180 -30 -90   XYZ
    dof rx ry rz
    limits (-60.0 90.0)
           (-90.0 90.0)
           (-90.0 90.0)
  end
  begin
     id 19
     name lradius
     direction 1 -4.4896e-011 -9.1621e-027   
     length 3.03857   
     axis 180 -30 -90   XYZ
    dof rx
    limits (-10.0 170.0)
  end
  begin
     id 20
     name lwrist
     direction 1 -4.4896e-011 -1.41363e-026   
     length 1.51928   
     axis 1.07133e-014 90 90   XYZ
    dof ry
    limits (-180.0 0.0)
 end
  begin
     id 21 
     name lhand
     direction 1 -4.48978e-011 -2.82725e-026   
     length 0.523208   
     axis 1.80403e-014 90 90   XYZ
    dof rx rz
    limits (-90.0 90.0)
           (-45.0 45.0)
  end
  begin
     id 22 
     name lfingers
     direction 1 -4.48977e-011 -5.6545e-026   
     length 0.421824   
     axis 3.60806e-014 90 90   XYZ
    dof rx
    limits (0.0 90.0)
  end
  begin
     id 23
     name lthumb
     direction 0.707107 -6.34962e-011 0.707107   
     length 0.605657   
     axis -90 45 2.85299e-015   XYZ
    dof rx rz
    limits (-45.0 45.0)
           (-45.0 45.0)
  end
  begin
     id 24 
     name rclavicle
     direction -0.957247 0.24311 0.156766   
     length 3.12406  
     axis 0 0 0   XYZ 
    dof ry rz
    limits (-10.0 20.0)
           (-20.0 0.0)
  end
  begin
     id 25 
     name rhumerus
     direction -1 -4.48964e-011 -1.70632e-027  
     length 4.61969   
     axis 180 30 90   XYZ
    dof rx ry rz
    limits (-90.0 60.0)
           (-90.0 90.0)
           (-90.0 90.0)
  end
  begin
     id 26 
     name rradius
     direction -1 -4.48966e-011 -6.60395e-027   
     length 3.09382   
     axis 180 30 90   XYZ
    dof rx
    limits (-10.0 170.0)
  end
  begin
     id 27 
     name rwrist
     direction -1 -4.48963e-011 -1.41363e-026   
     length 1.54691   
     axis 1.07133e-014 -90 -90   XYZ
    dof ry
    limits (-180.0 0.0)
  end
  begin
     id 28
     name rhand
     direction -1 -4.49013e-011 -2.82725e-026   
     length 0.500896   
     axis 1.80403e-014 -90 -90   XYZ
    dof rx rz
    limits (-90.0 90.0)
           (-45.0 45.0)
  end
  begin
     id 29
     name rfingers
     direction -1 -4.48902e-011 -5.6545e-026   
     length 0.403835   
     axis 3.60806e-014 -90 -90   XYZ
    dof rx
    limits (0.0 90.0)
  end
  begin
     id 30
     name rthumb
     direction -0.707107 -6.34953e-011 0.707107   
     length 0.579829   
     axis -90 -45 -2.85299e-015   XYZ
    dof rx rz
    limits (-45.0 45.0)
           (-45.0 45.0)
  end
:hierarchy
  begin
    root lhipjoint rhipjoint lowerback
    lhipjoint lfemur
    lfemur ltibia
    ltibia lfoot
    lfoot ltoes
    rhipjoint rfemur
    rfemur rtibia
    rtibia rfoot
    rfoot rtoes
    lowerback upperback
    upperback thorax
    thorax lowerneck lclavicle rclavicle
    lowerneck upperneck
    upperneck head
    lclavicle lhumerus
    lhumerus lradius
    lradius lwrist
    lwrist lhand lthumb
    lhand lfingers
    rclavicle rhumerus
    rhumerus rradius
    rradius rwrist
    rwrist rhand rthumb
    rhand rfingers
  end

#!OML:ASF E:\madness\Project 1\Capture day 1\Session 1\Female1.ASF
:FULLY-SPECIFIED
:DEGREES
465
root 19.976 15.775 -2.12246 203.446 -83.7309 -190.079
lowerback 23.9758 4.18634 -3.02797
upperback 9.04064 3.74631 -2.47824
thorax -3.39926 1.49268 -1.91354
lowerneck -7.96906 4.50181 -0.622924
upperneck 13.2434 7.06769 -7.5069
head 5.56775 2.83482 -1.73853
rclavicle -8.44835e-015 -1.65985e-014
rhumerus -24.656 26.2254 -87.2672
rradius 76.2305
rwrist 3.06263
rhand -9.09263 -39.5696
rfingers 7.12502
rthumb 16.8573 -68.8579
lclavicle -8.44835e-015 -1.65985e-014
lhumerus -42.8597 -10.4753 74.8946
lradius 83.4312
lwrist 2.42063
lhand -41.6953 -4.79276
lfingers 7.12502
lthumb -14.6016 24.6732
rfemur -32.4606 8.6446 17.6523
rtibia 36.7874
rfoot -17.427 -4.44174
rtoes 8.72342
lfemur -37.3781 -13.1643 0.156552
ltibia 43.5278
lfoot -0.00339401 10.8634
ltoes -1.90599
466
root 19.9996 15.769 -2.17603 205.199 -83.6867 -191.671
lowerback 24.4716 4.32734 -2.98343
upperback 9.21697 3.8647 -2.68775
thorax -3.42754 1.54052 -2.2191
lowerneck -7.68971 4.46666 -0.477559
upperneck 12.5686 6.98626 -7.76776
head 5.3212 2.82093 -1.85837
rclavicle 2.88238e-015 -2.28602e-014
rhumerus -23.9238 27.0946 -87.6921
rradius 76.0814
rwrist 3.13444
rhand -9.19146 -39.6967
rfingers 7.12502
rthumb 16.7621 -68.9931
lclavicle 2.88238e-015 -2.28602e-014
lhumerus -42.8827 -10.6035 74.4363
lradius 82.8306
lwrist 2.05931
lhand -42.5209 -6.85246
lfingers 7.12502
lthumb -15.397 22.5542
rfemur -32.8539 8.64693 17.6424
rtibia 37.0492
rfoot -17.3536 -4.40354
rtoes 8.94491
lfemur -37.6777 -13.0826 0.330831
ltibia 43.6131
lfoot 0.200882 10.4294
ltoes -4.58297
467
root 20.0275 15.7575 -2.23134 204.1 -82.9152 -189.848
lowerback 24.3088 4.80421 -3.24419
upperback 9.17637 4.40583 -2.88564
thorax -3.38459 1.80246 -2.42304
lowerneck -7.37892 4.36201 -0.486168
upperneck 12.2094 6.80903 -7.74319
head 5.14839 2.7591 -1.87062
rclavicle 2.8128e-014 -3.99557e-014
rhumerus -23.3781 27.9493 -88.0714
rradius 75.4016
rwrist 4.93008
rhand -11.0518 -38.2105
rfingers 7.12502
rthumb 14.9706 -67.6494
lclavicle 2.8128e-014 -3.99557e-014
lhumerus -43.1091 -10.8715 74.1717
lradius 82.2592
lwrist 1.66735
lhand -43.2942 -7.76388
lfingers 7.12502
lthumb -16.1416 21.584
rfemur -34.0682 9.15085 17.6453
rtibia 37.3839
rfoot -17.0149 -4.18339
rtoes 8.57039
lfemur -38.2654 -12.3375 0.731556
ltibia 43.762
lfoot 0.323956 10.2954
ltoes -5.5185
468
root 20.0534 15.7491 -2.27334 206.057 -83.2497 -191.658
lowerback 24.8719 4.66972 -3.41426
upperback 9.39958 4.14585 -2.70731
thorax -3.44378 1.65506 -2.09185
lowerneck -7.48129 4.45668 -1.13274
upperneck 11.6378 7.01559 -8.04526
head 4.98935 2.8322 -1.84609
rclavicle -2.57923e-014 -1.59525e-014
rhumerus -22.2645 29.5811 -87.7267
rradius 75.2965
rwrist 4.2969
rhand -10.5007 -37.4508
rfingers 7.12502
rthumb 15.5014 -66.8493
lclavicle -2.57923e-014 -1.59525e-014
lhumerus -43.2851 -10.0651 74.231
lradius 81.5326
lwrist 1.36762
lhand -43.5798 -6.86601
lfingers 7.12502
lthumb -16.4167 22.4593
rfemur -34.4876 8.89181 17.6929
rtibia 37.7392
rfoot -16.9412 -4.30934
rtoes 8.07185
lfemur -38.7981 -12.6833 1.08052
ltibia 43.8607
lfoot 0.548743 9.90488
ltoes -4.99148
469
root 20.0768 15.7359 -2.31557 207.944 -83.6328 -193.452
lowerback 25.2801 4.59968 -3.24126
upperback 9.70629 4.04439 -2.67285
thorax -3.29512 1.59235 -2.13735
lowerneck -7.57902 4.45039 -1.53036
upperneck 11.2769 7.04095 -8.09919
head 4.88564 2.83834 -1.79712
rclavicle -5.84551e-014 -2.00027e-014
rhumerus -21.2831 30.4784 -87.5479
rradius 75.2733
rwrist 3.53237
rhand -10.1148 -37.1157
rfingers 7.12502
rthumb 15.8731 -66.4851
lclavicle -5.84551e-014 -2.00027e-014
lhumerus -43.199 -9.87421 74.0739
lradius 80.6953
lwrist 1.07669
lhand -43.0848 -5.13799
lfingers 7.12502
lthumb -15.94 24.2261
rfemur -34.8523 8.62053 17.8026
rtibia 38.1141
rfoot -16.9315 -4.46728
rtoes 7.53836
lfemur -39.2775 -12.9957 1.44319
ltibia 43.9544
lfoot 0.582455 9.49759
ltoes -3.73904
470
root 20.0953 15.7239 -2.36289 209.098 -83.7617 -194.384
lowerback 25.2842 4.51571 -3.58033
upperback 10.1485 3.83838 -2.48181
thorax -2.84783 1.4594 -1.66724
lowerneck -7.90061 4.56754 -2.45521
upperneck 10.7514 7.27078 -7.94374
head 4.75099 2.93902 -1.58266
rclavicle -1.44119e-015 5.66039e-014
rhumerus -19.9262 32.1883 -87.0442
rradius 75.173
rwrist 3.40852
rhand -10.088 -37.7297
rfingers 7.12502
rthumb 15.8989 -67.0971
lclavicle -1.44119e-015 5.66039e-014
lhumerus -43.1879 -8.79484 73.943
lradius 79.8962
lwrist 0.517206
lhand -42.0782 -3.87687
lfingers 7.12502
lthumb -14.9705 25.562
rfemur -35.37 8.56019 17.8999
rtibia 38.4872
rfoot -16.9533 -4.53692
rtoes 7.79824
lfemur -39.6946 -13.0723 1.81956
ltibia 43.9927
lfoot 0.440637 9.26648
ltoes -2.27659
471
root 20.113 15.7119 -2.4094 210.39 -83.9244 -195.379
lowerback 25.6334 4.64752 -3.2323
upperback 10.2398 4.03726 -2.65727
thorax -2.87555 1.5623 -2.1252
lowerneck -7.7842 4.62582 -1.43951
upperneck 10.3127 7.2845 -8.72658
head 4.66097 2.96501 -1.98871
rclavicle -2.80038e-014 3.50606e-014
rhumerus -19.4826 32.2302 -87.1113
rradius 75.2793
rwrist 3.39538
rhand -9.48046 -38.6639
rfingers 7.12502
rthumb 16.4839 -67.9836
lclavicle -2.80038e-014 3.50606e-014
lhumerus -43.0552 -9.47625 73.5904
lradius 78.8826
lwrist -0.0724079
lhand -42.3125 -5.48137
lfingers 7.12502
lthumb -15.1962 23.9406
rfemur -35.9348 8.50429 17.996
rtibia 38.8278
rfoot -17.0622 -4.58198
rtoes 8.70455
lfemur -40.1874 -13.232 2.25793
ltibia 44.0219
lfoot 0.468331 9.09406
ltoes -2.08342
472
root 20.132 15.6962 -2.4581 209.419 -83.7235 -193.994
lowerback 26.0416 4.98867 -3.00222
upperback 10.0965 4.48188 -2.85339
thorax -3.18623 1.78982 -2.6236
lowerneck -7.37569 4.52904 -0.673541
upperneck 9.9421 7.07604 -9.22522
head 4.51332 2.89263 -2.28949
rclavicle 5.13361e-014 6.70898e-015
rhumerus -19.6671 31.9288 -87.4519
rradius 75.5325
rwrist 3.6316
rhand -9.46923 -38.72
rfingers 7.12502
rthumb 16.4947 -68.0388
lclavicle 5.13361e-014 6.70898e-015
lhumerus -43.3638 -10.2909 73.2764
lradius 78.009
lwrist -0.825251
lhand -43.0702 -7.3792
lfingers 7.12502
lthumb -15.9259 21.986
rfemur -36.6627 8.69816 18.1977
rtibia 39.1409
rfoot -17.0451 -4.52716
rtoes 9.18871
lfemur -40.5525 -13.0935 2.78194
ltibia 43.9856
lfoot 0.695441 8.92389
ltoes -4.06468
473
root 20.1464 15.6797 -2.51086 207.261 -83.1484 -191.39
lowerback 26.1803 5.24303 -3.86646
upperback 10.0952 4.59209 -2.60853
thorax -3.33842 1.81284 -1.91318
lowerneck -7.73312 4.85412 -1.41855
upperneck 9.77239 7.61142 -9.33942
head 4.52635 3.11702 -2.1621
rclavicle 2.83268e-015 -7.35503e-015
rhumerus -19.325 33.4206 -87.1533
rradius 75.723
rwrist 4.12207
rhand -9.8504 -38.6668
rfingers 7.12502
rthumb 16.1277 -68.0157
lclavicle 2.83268e-015 -7.35503e-015
lhumerus -44.2706 -9.06582 73.1954
lradius 77.4044
lwrist -1.87282
lhand -43.3114 -8.04645
lfingers 7.12502
lthumb -16.1582 21.3
rfemur -37.4336 9.09598 18.433
rtibia 39.4699
rfoot -16.917 -4.36785
rtoes 9.37131
lfemur -40.6668 -12.6667 3.24759
ltibia 43.8342
lfoot 0.986057 8.84694
ltoes -6.20175
474
root 20.1582 15.6684 -2.55223 208.333 -83.1552 -192.204
lowerback 26.7128 5.28192 -3.87904
upperback 10.0194 4.58553 -2.68065
thorax -3.66912 1.8084 -2.02207
lowerneck -7.73105 5.07924 -1.31597
upperneck 9.64422 7.9321 -9.70659
head 4.52037 3.26315 -2.26961
rclavicle 4.07509e-015 2.97183e-014
rhumerus -19.4498 33.8467 -87.2234
rradius 76.0274
rwrist 4.6206
rhand -9.77308 -38.8163
rfingers 7.12502
rthumb 16.2022 -68.1592
lclavicle 4.07509e-015 2.97183e-014
lhumerus -44.9329 -9.09882 72.7992
lradius 76.706
lwrist -2.59306
lhand -43.6339 -8.37776
lfingers 7.12502
lthumb -16.4687 20.9432
rfemur -37.8991 8.95625 18.5298
rtibia 39.8194
rfoot -16.9847 -4.30692
rtoes 9.82473
lfemur -40.9204 -12.9452 3.62844
ltibia 43.5836
lfoot 1.17512 8.82183
ltoes -6.85657
